<?xml version="1.0" standalone="no"?>
<!DOCTYPE svg PUBLIC "-//W3C//DTD SVG 20010904//EN"
 "http://www.w3.org/TR/2001/REC-SVG-20010904/DTD/svg10.dtd">
<svg version="1.0" xmlns="http://www.w3.org/2000/svg"
 width="203.000000pt" height="248.000000pt" viewBox="0 0 203.000000 248.000000"
 preserveAspectRatio="xMidYMid meet">

<g transform="translate(0.000000,248.000000) scale(0.100000,-0.100000)"
fill="#2C368B" stroke="none">
<path d="M292 2406 c-34 -24 -65 -46 -68 -49 -3 -3 51 -101 121 -218 157 -263
152 -251 131 -280 -20 -29 -21 -91 -1 -128 8 -16 57 -98 110 -182 90 -144 95
-155 78 -167 -10 -7 -133 -79 -275 -158 l-256 -145 -6 -92 c-20 -303 -36 -812
-26 -841 20 -61 59 -87 147 -97 43 -5 444 -9 895 -7 l818 2 0 98 0 99 -326 -1
c-179 -1 -327 0 -329 2 -2 2 -5 29 -6 62 l-3 58 295 160 c162 88 297 163 301
167 5 4 -5 22 -20 40 l-28 34 -34 -18 c-19 -10 -127 -71 -240 -135 -400 -229
-443 -250 -495 -250 l-47 0 3 -62 4 -63 -140 0 c-171 0 -219 14 -304 92 -67
60 -125 164 -143 258 -7 33 -12 128 -12 212 -1 123 2 155 14 167 29 27 362
198 370 190 5 -5 59 -88 120 -184 61 -96 114 -178 118 -182 7 -6 45 -14 122
-25 26 -3 43 -15 64 -44 17 -21 34 -39 39 -39 13 0 77 40 77 48 0 4 -12 25
-26 46 -22 32 -24 42 -15 60 6 11 11 37 10 56 -1 19 2 44 5 55 6 16 -28 79
-135 255 -78 129 -211 350 -296 490 -85 140 -162 264 -173 274 -10 10 -35 22
-56 25 -38 6 -40 10 -174 233 -74 125 -137 227 -140 227 -3 0 -33 -20 -68 -43z"/>
</g>
</svg>
