<?xml version="1.0" standalone="no"?>
<!DOCTYPE svg PUBLIC "-//W3C//DTD SVG 20010904//EN"
 "http://www.w3.org/TR/2001/REC-SVG-20010904/DTD/svg10.dtd">
<svg version="1.0" xmlns="http://www.w3.org/2000/svg"
 width="820.000000pt" height="809.000000pt" viewBox="0 0 820.000000 809.000000"
 preserveAspectRatio="xMidYMid meet">

<g transform="translate(0.000000,809.000000) scale(0.100000,-0.100000)"
fill="#000000" stroke="none">
<path d="M1925 7316 c-121 -29 -252 -131 -306 -238 -63 -126 -59 106 -59
-3043 0 -2788 1 -2872 19 -2936 34 -118 114 -221 222 -286 114 -68 -27 -64
2067 -64 1401 0 1908 3 1950 11 119 25 246 120 311 234 63 109 61 58 61 1431
l0 1250 940 940 c518 517 956 963 974 990 102 154 107 352 11 512 -49 83 -402
431 -472 467 -146 73 -293 75 -443 4 -59 -28 -115 -80 -656 -620 l-590 -589
-528 0 c-497 1 -531 2 -594 20 -102 31 -200 101 -264 191 -30 42 -76 155 -82
202 -3 18 -5 372 -5 786 l-1 752 -1252 -1 c-948 0 -1265 -4 -1303 -13z m5588
-929 c21 -9 111 -90 220 -199 176 -175 186 -187 202 -243 20 -68 16 -131 -14
-190 -11 -23 -113 -133 -245 -265 l-226 -225 -315 315 c-173 173 -315 320
-315 325 0 6 103 113 229 239 205 204 234 230 282 246 60 21 128 19 182 -3z
m-500 -918 l321 -320 -1410 -1410 c-775 -775 -1414 -1409 -1419 -1409 -13 0
-635 622 -635 635 0 9 2810 2825 2818 2825 2 0 148 -144 325 -321z m-2681
-3290 c-7 -6 -726 -149 -751 -149 -10 0 -12 8 -8 28 19 86 111 532 127 615 11
54 22 102 26 108 4 7 134 -116 310 -292 167 -167 300 -306 296 -310z"/>
<path d="M4732 6564 l3 -761 37 -56 c24 -36 54 -66 85 -84 l48 -28 638 -3 639
-3 -44 53 c-23 29 -45 55 -48 58 -3 3 -24 27 -45 55 -42 53 -79 95 -160 184
-66 73 -64 70 -110 127 -22 26 -71 85 -110 130 -187 217 -201 233 -290 339
-27 33 -83 98 -125 145 -81 92 -130 150 -237 277 -71 85 -245 287 -270 313
-12 13 -13 -90 -11 -746z"/>
</g>
</svg>
